<?xml version="1.0" encoding="utf-8"?>
<!-- Generator: Adobe Illustrator 22.0.1, SVG Export Plug-In . SVG Version: 6.00 Build 0)  -->
<svg version="1.1" id="Layer_1" xmlns="http://www.w3.org/2000/svg" xmlns:xlink="http://www.w3.org/1999/xlink" x="0px" y="0px"
	 viewBox="0 0 42.8 42.8" style="enable-background:new 0 0 42.8 42.8;" xml:space="preserve">
<style type="text/css">
	.st0{fill:#8CC541;stroke:#8CC541;stroke-miterlimit:10;}
	.st1{fill:#FFFFFF;}
	.st2{fill:#2B3990;stroke:#2B3990;stroke-miterlimit:10;}
	.st3{fill:#BE1E2D;stroke:#BE1E2D;stroke-miterlimit:10;}
	.st4{fill:#C2B59B;stroke:#C2B59B;stroke-miterlimit:10;}
	.st5{fill:#00A79D;stroke:#00A79D;stroke-miterlimit:10;}
	.st6{fill:#C38CAC;stroke:#C38CAC;stroke-miterlimit:10;}
	.st7{fill:#92278F;stroke:#92278F;stroke-miterlimit:10;}
	.st8{fill:#FBB040;stroke:#FBB040;stroke-miterlimit:10;}
	.st9{fill:#FFE600;stroke:#FFE600;stroke-miterlimit:10;}
	.st10{fill:#A97C50;stroke:#A97C50;stroke-miterlimit:10;}
	.st11{stroke:#000000;stroke-miterlimit:10;}
	.st12{fill:#39A4DD;stroke:#39A4DD;stroke-miterlimit:10;}
	.st13{fill:#EC2227;stroke:#EC2227;stroke-miterlimit:10;}
	.st14{fill:#90D7EF;stroke:#90D7EF;stroke-miterlimit:10;}
	.st15{fill:#989898;stroke:#989898;stroke-miterlimit:10;}
	.st16{fill-rule:evenodd;clip-rule:evenodd;fill:#FFFFFF;}
	.st17{fill-rule:evenodd;clip-rule:evenodd;fill:#989898;}
</style>
<g>
	<circle class="st0" cx="21.4" cy="21.4" r="20.9"/>
	<g>
		<path class="st1" d="M32.8,20.2c0,0-1.7-4.6-2.4-6.7s-1.7-2.4-3-2.4c-1,0-4.1,0-5.7,0c0,0-0.3,0-0.8,0c-1.5,0-4.7,0-5.7,0
			c-1.3,0-2.2,0.4-3,2.4c-0.7,2-2.4,6.7-2.4,6.7s-1.2-0.4-1.2,1.2s0,5.5,0,5.5l8.4,0.7h8.6l8.4-0.7c0,0,0-3.9,0-5.5
			S32.8,20.2,32.8,20.2z M12.4,24.7c-0.9,0-1.7-0.5-1.7-1.1s0.7-1.1,1.7-1.1c0.9,0,1.7,0.5,1.7,1.1S13.3,24.7,12.4,24.7z M11.8,20
			c0,0,1.2-3.4,1.8-4.9c0.5-1.5,1.2-1.8,2.2-1.8c1,0,10.2,0,11.2,0c1,0,1.6,0.3,2.2,1.8s1.8,4.9,1.8,4.9H11.8z M30.3,24.7
			c-0.9,0-1.7-0.5-1.7-1.1s0.7-1.1,1.7-1.1c0.9,0,1.7,0.5,1.7,1.1S31.3,24.7,30.3,24.7z"/>
		<path class="st1" d="M9.6,27.6c0,0,0,4.1,0.7,4.1c0.2,0,0.4,0,0.7,0c0.4,0,0.8,0,1.2,0c0.2,0,0.4,0,0.7,0c0.7,0,0.7-3.7,0.7-3.7
			L9.6,27.6z"/>
		<path class="st1" d="M32.8,27.6c0,0,0,4.1-0.7,4.1c-0.2,0-0.4,0-0.7,0c-0.4,0-0.8,0-1.2,0c-0.2,0-0.4,0-0.7,0
			c-0.7,0-0.7-3.7-0.7-3.7L32.8,27.6z"/>
	</g>
</g>
</svg>
