<?xml version="1.0" encoding="utf-8"?>
<!-- Generator: Adobe Illustrator 22.0.1, SVG Export Plug-In . SVG Version: 6.00 Build 0)  -->
<svg version="1.1" id="Layer_1" xmlns="http://www.w3.org/2000/svg" xmlns:xlink="http://www.w3.org/1999/xlink" x="0px" y="0px"
	 viewBox="0 0 42.8 42.8" style="enable-background:new 0 0 42.8 42.8;" xml:space="preserve">
<style type="text/css">
	.st0{fill:#8CC541;stroke:#8CC541;stroke-miterlimit:10;}
	.st1{fill:#FFFFFF;}
	.st2{fill:#2B3990;stroke:#2B3990;stroke-miterlimit:10;}
	.st3{fill:#BE1E2D;stroke:#BE1E2D;stroke-miterlimit:10;}
	.st4{fill:#C2B59B;stroke:#C2B59B;stroke-miterlimit:10;}
	.st5{fill:#00A79D;stroke:#00A79D;stroke-miterlimit:10;}
	.st6{fill:#C38CAC;stroke:#C38CAC;stroke-miterlimit:10;}
	.st7{fill:#92278F;stroke:#92278F;stroke-miterlimit:10;}
	.st8{fill:#FBB040;stroke:#FBB040;stroke-miterlimit:10;}
	.st9{fill:#FFE600;stroke:#FFE600;stroke-miterlimit:10;}
	.st10{fill:#A97C50;stroke:#A97C50;stroke-miterlimit:10;}
	.st11{stroke:#000000;stroke-miterlimit:10;}
	.st12{fill:#39A4DD;stroke:#39A4DD;stroke-miterlimit:10;}
	.st13{fill:#EC2227;stroke:#EC2227;stroke-miterlimit:10;}
	.st14{fill:#90D7EF;stroke:#90D7EF;stroke-miterlimit:10;}
	.st15{fill:#989898;stroke:#989898;stroke-miterlimit:10;}
	.st16{fill-rule:evenodd;clip-rule:evenodd;fill:#FFFFFF;}
	.st17{fill-rule:evenodd;clip-rule:evenodd;fill:#989898;}
</style>
<g>
	<circle class="st14" cx="21.4" cy="21.4" r="20.9"/>
	<g>
		<path class="st1" d="M33,16c0.5,0.9,0.8,1.9,0.9,3c0.1,1,0,2.1-0.3,3.1l0,0c-0.3,1-0.8,1.9-1.5,2.7l0,0c-0.5,0.6-1.1,1.1-1.8,1.6
			l0.3,0.6c0.7,1.4,0.4,3.1-0.6,4.4c-1.2,1.4-3.5,2.3-5.3,2.1c-2.9-0.3-6.3-2-9.8-8.5l-2-3.8c-0.5,0.1-1.1,0-1.6-0.1l0,0
			c-0.9-0.3-1.7-0.9-2.1-1.8c-0.5-0.9-0.5-1.9-0.3-2.7c0.3-0.9,0.9-1.7,1.8-2.1c0.9-0.5,1.9-0.5,2.7-0.3c0.9,0.3,1.7,0.9,2.1,1.8
			c0.5,0.9,0.5,1.9,0.3,2.7l0,0c-0.2,0.8-0.8,1.5-1.6,2l0.4,0.8l1.5,2.8c3.2,6,6.1,7.5,8.6,7.8c1.4,0.1,3.2-0.6,4.1-1.6
			c0.7-0.8,0.9-1.9,0.5-2.8L29.1,27c-0.8,0.3-1.5,0.5-2.3,0.6l0,0c-1,0.1-2.1,0-3.1-0.3l0,0c-1-0.3-1.9-0.8-2.7-1.5l0,0
			c-0.8-0.6-1.4-1.5-1.9-2.4L18.8,23l0.4-0.2c-0.2-0.5-0.1-0.2-0.3-0.6c-1.9-3.6-2.6-5.6-0.5-8.6c-0.3-0.4-0.2-0.9,0.1-1.3l0.6-0.6
			c0.3-0.3,0.7-0.3,1-0.2l0,0l0.2,0.2c0,0,0.1,0.1,0.1,0.1l0.2,0.2l0.5,0.5l0,0c0.2,0.4,0.2,0.9-0.2,1.2l-0.6,0.6
			c-0.2,0.2-0.6,0.3-0.9,0.3c-1.5,2.3-0.9,4,0.6,6.9c0.2,0.4,0.1,0.2,0.4,0.7l0.5-0.2l0.3,0.5c0.1,0.2,0.2,0.3,0.3,0.5
			c0.3,0.4,0.6,0.8,1,1.2c0.6,0.5,1.2,0.8,1.9,1l0,0c0.7,0.2,1.4,0.3,2.1,0.2l0,0c0,0,0.1,0,0.2,0c0.6-0.1,1.3-0.3,1.9-0.6
			c0.7-0.3,1.2-0.8,1.7-1.3c0.5-0.6,0.8-1.2,1-1.9l0,0c0.2-0.7,0.3-1.4,0.2-2.1c-0.1-0.7-0.3-1.4-0.6-2l-0.3-0.5l0.4-0.2
			c-0.3-0.5-0.2-0.3-0.4-0.8c-1.5-2.8-2.6-4.3-5.3-4.3c-0.1,0.3-0.4,0.5-0.7,0.6l-0.9,0.2c-0.4,0.1-0.9-0.1-1.1-0.5l0,0l-0.1-0.7
			l-0.1-0.3c0,0,0-0.1,0-0.1l0-0.3l0.1,0c0.1-0.4,0.4-0.7,0.8-0.7l0.9-0.2c0.5-0.1,1,0.2,1.1,0.6c3.6,0,4.9,1.6,6.7,5.1
			c0.2,0.4,0.1,0.3,0.4,0.8l0.4-0.2L33,16L33,16z M13.2,19c0.8-0.4,1.1-1.4,0.7-2.1c-0.4-0.8-1.4-1.1-2.1-0.7
			c-0.8,0.4-1.1,1.4-0.7,2.1C11.4,19.2,12.4,19.5,13.2,19L13.2,19z M11.8,19.7c0.5,0.2,1.1,0.1,1.6-0.2c0.5-0.3,0.9-0.7,1.1-1.3l0,0
			c0.2-0.5,0.1-1.1-0.2-1.6c-0.3-0.5-0.7-0.9-1.3-1.1c-0.5-0.2-1.1-0.1-1.6,0.2c-0.5,0.3-0.9,0.7-1.1,1.3c-0.2,0.5-0.1,1.1,0.2,1.6
			C10.8,19.2,11.3,19.5,11.8,19.7L11.8,19.7z"/>
	</g>
</g>
</svg>
