<?xml version="1.0" encoding="utf-8"?>
<!-- Generator: Adobe Illustrator 22.0.1, SVG Export Plug-In . SVG Version: 6.00 Build 0)  -->
<svg version="1.1" id="Layer_1" xmlns="http://www.w3.org/2000/svg" xmlns:xlink="http://www.w3.org/1999/xlink" x="0px" y="0px"
	 viewBox="0 0 42.8 42.8" style="enable-background:new 0 0 42.8 42.8;" xml:space="preserve">
<style type="text/css">
	.st0{fill:#8CC541;stroke:#8CC541;stroke-miterlimit:10;}
	.st1{fill:#FFFFFF;}
	.st2{fill:#2B3990;stroke:#2B3990;stroke-miterlimit:10;}
	.st3{fill:#BE1E2D;stroke:#BE1E2D;stroke-miterlimit:10;}
	.st4{fill:#C2B59B;stroke:#C2B59B;stroke-miterlimit:10;}
	.st5{fill:#00A79D;stroke:#00A79D;stroke-miterlimit:10;}
	.st6{fill:#C38CAC;stroke:#C38CAC;stroke-miterlimit:10;}
	.st7{fill:#92278F;stroke:#92278F;stroke-miterlimit:10;}
	.st8{fill:#FBB040;stroke:#FBB040;stroke-miterlimit:10;}
	.st9{fill:#FFE600;stroke:#FFE600;stroke-miterlimit:10;}
	.st10{fill:#A97C50;stroke:#A97C50;stroke-miterlimit:10;}
	.st11{stroke:#000000;stroke-miterlimit:10;}
	.st12{fill:#39A4DD;stroke:#39A4DD;stroke-miterlimit:10;}
	.st13{fill:#EC2227;stroke:#EC2227;stroke-miterlimit:10;}
	.st14{fill:#90D7EF;stroke:#90D7EF;stroke-miterlimit:10;}
	.st15{fill:#989898;stroke:#989898;stroke-miterlimit:10;}
	.st16{fill-rule:evenodd;clip-rule:evenodd;fill:#FFFFFF;}
	.st17{fill-rule:evenodd;clip-rule:evenodd;fill:#989898;}
</style>
<g>
	<circle class="st13" cx="21.4" cy="21.4" r="20.9"/>
	<g>
		<path class="st1" d="M24.5,31.3c-2.1,0-3.8-1.7-3.8-3.7c0-2.1,1.7-3.8,3.8-3.8c2.1,0,3.7,1.7,3.7,3.8
			C28.3,29.6,26.6,31.3,24.5,31.3z M24.5,29.4c1,0,1.9-0.8,1.9-1.9c0-1.1-0.8-1.9-1.9-1.9c-1,0-1.9,0.8-1.9,1.9
			C22.6,28.6,23.5,29.4,24.5,29.4z"/>
		<path class="st1" d="M32.5,20.2c-2.6-0.5-5.2-1-7.8-1.4c-0.1,0-0.2-0.1-0.3-0.1c0-0.9,0-1.8,0-2.6c0-0.1,0.2-0.2,0.3-0.3
			c1.9-0.9,3.8-1.8,5.6-2.6c0.3-0.1,0.5-0.3,0.6-0.7c0-0.3-0.1-0.6-0.3-0.8c-0.3-0.2-0.6-0.2-0.9-0.1c-1.1,0.5-2.3,1-3.4,1.6
			c-2.8,1.3-5.6,2.6-8.4,3.9c-0.2,0.1-0.4,0-0.5-0.1c-2.1-1.4-4.1-2.7-6.2-4.1c-0.3-0.2-0.6-0.3-1-0.3c-0.4,0-0.7,0-1.1,0v1.2
			c0.3,0,0.6,0,0.7,0c0.3,0,0.6,0.1,0.9,0.3c1.7,1.1,3.4,2.3,5.1,3.4c0.1,0.1,0.2,0.1,0.3,0.2c-2,0-4.8,0-7.1,0v11
			c3.6,0,7.2,0,10.7,0c-0.4-2.3,0.3-4.1,2.3-5.3c1.7-1,3.4-0.9,5,0.2c1.8,1.2,2.4,3,2,5.1c0.5,0.1,1,0,1.5-0.2
			c0.8-0.4,1.5-0.9,2.1-1.5c0.8-0.7,0.7-1.6,0.9-2.7C33.8,23,33.5,20.2,32.5,20.2z M23.5,18.5c-1.1-0.2-2.2-0.4-3.3-0.6
			c0,0,0-0.1,0-0.1c1.1-0.5,2.1-1,3.2-1.5c0,0.1,0,0.2,0,0.3C23.5,17.2,23.5,17.8,23.5,18.5z"/>
	</g>
</g>
</svg>
