<?xml version="1.0" encoding="utf-8"?>
<!-- Generator: Adobe Illustrator 22.0.1, SVG Export Plug-In . SVG Version: 6.00 Build 0)  -->
<svg version="1.1" id="Layer_1" xmlns="http://www.w3.org/2000/svg" xmlns:xlink="http://www.w3.org/1999/xlink" x="0px" y="0px"
	 viewBox="0 0 42.8 42.8" style="enable-background:new 0 0 42.8 42.8;" xml:space="preserve">
<style type="text/css">
	.st0{fill:#8CC541;stroke:#8CC541;stroke-miterlimit:10;}
	.st1{fill:#FFFFFF;}
	.st2{fill:#2B3990;stroke:#2B3990;stroke-miterlimit:10;}
	.st3{fill:#BE1E2D;stroke:#BE1E2D;stroke-miterlimit:10;}
	.st4{fill:#C2B59B;stroke:#C2B59B;stroke-miterlimit:10;}
	.st5{fill:#00A79D;stroke:#00A79D;stroke-miterlimit:10;}
	.st6{fill:#C38CAC;stroke:#C38CAC;stroke-miterlimit:10;}
	.st7{fill:#92278F;stroke:#92278F;stroke-miterlimit:10;}
	.st8{fill:#FBB040;stroke:#FBB040;stroke-miterlimit:10;}
	.st9{fill:#FFE600;stroke:#FFE600;stroke-miterlimit:10;}
	.st10{fill:#A97C50;stroke:#A97C50;stroke-miterlimit:10;}
	.st11{stroke:#000000;stroke-miterlimit:10;}
	.st12{fill:#39A4DD;stroke:#39A4DD;stroke-miterlimit:10;}
	.st13{fill:#EC2227;stroke:#EC2227;stroke-miterlimit:10;}
	.st14{fill:#90D7EF;stroke:#90D7EF;stroke-miterlimit:10;}
	.st15{fill:#989898;stroke:#989898;stroke-miterlimit:10;}
	.st16{fill-rule:evenodd;clip-rule:evenodd;fill:#FFFFFF;}
	.st17{fill-rule:evenodd;clip-rule:evenodd;fill:#989898;}
</style>
<g>
	<circle class="st12" cx="21.4" cy="21.4" r="20.9"/>
	<g>
		<path class="st1" d="M30,21.9c0,0-0.1-4.4-0.1-6.4s-0.7-2.5-1.8-2.9c-0.8-0.3-3.5-1.2-4.8-1.6c0,0-0.3-0.1-0.7-0.2
			c-1.3-0.4-4-1.4-4.8-1.6c-1.1-0.4-2-0.3-3.2,1.2s-4,5-4,5S9.6,14.7,9.2,16c-0.5,1.3-1.6,4.6-1.6,4.6l6.9,3l7.3,2.5L29,28
			c0,0,1.1-3.3,1.6-4.6C31.1,22,30,21.9,30,21.9z M11.3,19.9c-0.8-0.3-1.3-0.9-1.1-1.4c0.2-0.5,1-0.7,1.7-0.5
			c0.8,0.3,1.3,0.9,1.1,1.4C12.9,20,12.1,20.2,11.3,19.9z M12.2,15.8c0,0,2-2.5,2.9-3.7c0.9-1.1,1.6-1.2,2.4-0.9
			c0.8,0.3,8.6,2.9,9.5,3.2c0.8,0.3,1.3,0.7,1.3,2.1c0,1.4,0.1,4.7,0.1,4.7L12.2,15.8z M26.5,25.1c-0.8-0.3-1.3-0.9-1.1-1.4
			c0.2-0.5,1-0.7,1.7-0.5s1.3,0.9,1.1,1.4C28.1,25.1,27.3,25.3,26.5,25.1z"/>
		<path class="st1" d="M8.1,21.5c0,0-1.2,3.5-0.5,3.7c0.2,0.1,0.4,0.1,0.6,0.2c0.4,0.1,0.7,0.2,1,0.3c0.2,0.1,0.4,0.1,0.6,0.2
			c0.6,0.2,1.7-2.9,1.7-2.9L8.1,21.5z"/>
		<path class="st1" d="M27.7,28.2c0,0-1.2,3.5-1.8,3.2c-0.2-0.1-0.4-0.1-0.6-0.2c-0.4-0.1-0.7-0.2-1-0.3c-0.2-0.1-0.4-0.1-0.6-0.2
			c-0.6-0.2,0.4-3.4,0.4-3.4L27.7,28.2z"/>
	</g>
	<path class="st1" d="M27.6,27.2c-3.6,1.4-7.2,1.4-10.8,0c-4.5-1.8-9.1-1.7-13.7,0c-0.7,0.3-1.3,0.5-1.7,0.7
		c0.3,0.8,0.6,1.5,0.9,2.3c0.9-0.3,1.8-0.5,2.7-0.8c3.4-1.2,6.7-1.3,10.1,0.1c1.7,0.7,3.7,1.1,5.6,1.3c3,0.4,5.8-0.2,8.4-1.2
		c3.7-1.4,7.3-1.5,11,0.1c0.1,0,0.2,0.1,0.3,0.1c0.3-0.8,0.6-1.6,0.9-2.5C36.9,25.5,32.3,25.5,27.6,27.2z"/>
	<path class="st1" d="M27.7,31.7c-3.6,1.4-7.2,1.4-10.8,0c-4.6-1.8-9.1-1.7-13.7,0c0.4,0.8,0.9,1.5,1.5,2.3
		c3.7-1.4,7.2-1.4,10.9,0.1c4.6,1.8,9.2,1.7,13.8-0.1c3-1.2,6-1.4,9-0.5c0.5-0.7,1-1.5,1.4-2.3C35.8,30,31.8,30.2,27.7,31.7z"/>
</g>
</svg>
