<?xml version="1.0" encoding="utf-8"?>
<!-- Generator: Adobe Illustrator 22.0.1, SVG Export Plug-In . SVG Version: 6.00 Build 0)  -->
<svg version="1.1" id="Layer_1" xmlns="http://www.w3.org/2000/svg" xmlns:xlink="http://www.w3.org/1999/xlink" x="0px" y="0px"
	 viewBox="0 0 42.8 42.8" style="enable-background:new 0 0 42.8 42.8;" xml:space="preserve">
<style type="text/css">
	.st0{fill:#8CC541;stroke:#8CC541;stroke-miterlimit:10;}
	.st1{fill:#FFFFFF;}
	.st2{fill:#2B3990;stroke:#2B3990;stroke-miterlimit:10;}
	.st3{fill:#BE1E2D;stroke:#BE1E2D;stroke-miterlimit:10;}
	.st4{fill:#C2B59B;stroke:#C2B59B;stroke-miterlimit:10;}
	.st5{fill:#00A79D;stroke:#00A79D;stroke-miterlimit:10;}
	.st6{fill:#C38CAC;stroke:#C38CAC;stroke-miterlimit:10;}
	.st7{fill:#92278F;stroke:#92278F;stroke-miterlimit:10;}
	.st8{fill:#FBB040;stroke:#FBB040;stroke-miterlimit:10;}
	.st9{fill:#FFE600;stroke:#FFE600;stroke-miterlimit:10;}
	.st10{fill:#A97C50;stroke:#A97C50;stroke-miterlimit:10;}
	.st11{stroke:#000000;stroke-miterlimit:10;}
	.st12{fill:#39A4DD;stroke:#39A4DD;stroke-miterlimit:10;}
	.st13{fill:#EC2227;stroke:#EC2227;stroke-miterlimit:10;}
	.st14{fill:#90D7EF;stroke:#90D7EF;stroke-miterlimit:10;}
	.st15{fill:#989898;stroke:#989898;stroke-miterlimit:10;}
	.st16{fill-rule:evenodd;clip-rule:evenodd;fill:#FFFFFF;}
	.st17{fill-rule:evenodd;clip-rule:evenodd;fill:#989898;}
</style>
<g>
	<circle class="st8" cx="21.4" cy="21.4" r="20.9"/>
	<g>
		<g>
			<path class="st1" d="M11.4,33.2L11.9,20c-1-0.2-1.9-0.7-2.7-1.4c-2.5-2.3-2.7-6.3-0.4-8.8c0.4-0.5,0.9-0.9,1.4-1.2l0.2,5.1
				c0,0.8,0.7,1.4,1.4,1.3l3.1-0.1c0.8,0,1.4-0.7,1.3-1.4l-0.2-5.1c0.5,0.3,1.1,0.6,1.5,1c2.5,2.3,2.7,6.3,0.4,8.8
				c-0.7,0.8-1.6,1.3-2.5,1.7l1.6,13.1c0.1,0.8-0.5,1.4-1.2,1.4l-3.1,0.1C12,34.5,11.4,33.9,11.4,33.2z"/>
			<path class="st1" d="M34.8,25.9c-1.8-0.3-3.6-0.7-5.4-1c-0.1,0-0.2,0-0.2-0.1c0-0.6,0-1.2,0-1.8c0-0.1,0.1-0.2,0.2-0.2
				c1.3-0.6,2.6-1.2,3.9-1.8c0.2-0.1,0.4-0.2,0.4-0.5c0-0.2,0-0.4-0.2-0.5c-0.2-0.2-0.4-0.2-0.6,0c-0.8,0.4-1.6,0.7-2.4,1.1
				c-2,0.9-3.9,1.8-5.9,2.7c-0.1,0.1-0.2,0-0.4,0c-1.4-0.9-2.9-1.9-4.3-2.8c-0.2-0.1-0.4-0.2-0.7-0.2c-0.6,0-1.2,0-1.8,0v0.6l0,0.2
				c0.3,0,1.3,0,1.5,0c0.2,0,0.4,0.1,0.6,0.2c1.2,0.8,2.4,1.6,3.6,2.4c0.1,0,0.1,0.1,0.2,0.2c-1.6,0-4,0-5.7,0l0.9,7.7
				c2.4,0,4.8,0,7.3,0c-0.3-1.6,0.2-2.9,1.6-3.7c1.2-0.7,2.4-0.6,3.5,0.1c1.3,0.9,1.7,2.1,1.4,3.6c0.4,0,0.7,0,1-0.2
				c0.5-0.3,1-0.6,1.5-1c0.5-0.5,0.5-1.1,0.6-1.9C35.7,27.9,35.4,25.9,34.8,25.9z M26.2,24.3C26.2,24.3,26.2,24.2,26.2,24.3
				c0.7-0.4,1.5-0.7,2.3-1.1c0,0.1,0,0.1,0,0.2c0,0.4,0,0.9,0,1.3C27.7,24.5,26.9,24.4,26.2,24.3z"/>
		</g>
		<g>
			<path class="st1" d="M29.2,33.6c-1.5,0-2.7-1.2-2.7-2.6c0-1.5,1.2-2.7,2.7-2.7c1.5,0,2.6,1.2,2.6,2.7
				C31.8,32.4,30.6,33.6,29.2,33.6z M29.2,32.3c0.7,0,1.3-0.6,1.3-1.3c0-0.8-0.6-1.4-1.3-1.4c-0.7,0-1.3,0.6-1.3,1.3
				C27.8,31.7,28.4,32.3,29.2,32.3z"/>
		</g>
	</g>
</g>
</svg>
