<?xml version="1.0" encoding="utf-8"?>
<!-- Generator: Adobe Illustrator 22.0.1, SVG Export Plug-In . SVG Version: 6.00 Build 0)  -->
<svg version="1.1" id="Layer_1" xmlns="http://www.w3.org/2000/svg" xmlns:xlink="http://www.w3.org/1999/xlink" x="0px" y="0px"
	 viewBox="0 0 42.8 42.8" style="enable-background:new 0 0 42.8 42.8;" xml:space="preserve">
<style type="text/css">
	.st0{fill:#8CC541;stroke:#8CC541;stroke-miterlimit:10;}
	.st1{fill:#FFFFFF;}
	.st2{fill:#2B3990;stroke:#2B3990;stroke-miterlimit:10;}
	.st3{fill:#BE1E2D;stroke:#BE1E2D;stroke-miterlimit:10;}
	.st4{fill:#C2B59B;stroke:#C2B59B;stroke-miterlimit:10;}
	.st5{fill:#00A79D;stroke:#00A79D;stroke-miterlimit:10;}
	.st6{fill:#C38CAC;stroke:#C38CAC;stroke-miterlimit:10;}
	.st7{fill:#92278F;stroke:#92278F;stroke-miterlimit:10;}
	.st8{fill:#FBB040;stroke:#FBB040;stroke-miterlimit:10;}
	.st9{fill:#FFE600;stroke:#FFE600;stroke-miterlimit:10;}
	.st10{fill:#A97C50;stroke:#A97C50;stroke-miterlimit:10;}
	.st11{stroke:#000000;stroke-miterlimit:10;}
	.st12{fill:#39A4DD;stroke:#39A4DD;stroke-miterlimit:10;}
	.st13{fill:#EC2227;stroke:#EC2227;stroke-miterlimit:10;}
	.st14{fill:#90D7EF;stroke:#90D7EF;stroke-miterlimit:10;}
	.st15{fill:#989898;stroke:#989898;stroke-miterlimit:10;}
	.st16{fill-rule:evenodd;clip-rule:evenodd;fill:#FFFFFF;}
	.st17{fill-rule:evenodd;clip-rule:evenodd;fill:#989898;}
</style>
<g>
	<g>
		<circle class="st15" cx="21.4" cy="21.4" r="20.9"/>
	</g>
	<path class="st16" d="M14.8,27.5c-0.8,0-0.8-3.6-0.4-4.9c0.4-0.9,2.4-0.7,2.5-1c0.7-1.8,2.7-3.7,5-3.7c2.1,0,1,0,4.1,0
		c2.5,0,5.1,2.6,7.7,3.8h0.5c3.1,0,4.5,1.3,4.9,2.6c0.1,0.1,0.4,0.3,0.4,0.4c0.2,1,0,2.8-0.3,2.8H38v0c0-1.7-1.4-3.2-3.2-3.2
		c-1.7,0-3.2,1.4-3.2,3.2v0h-9.4v0c0-1.8-1.5-3.2-3.2-3.2c-1.7,0-3.2,1.4-3.2,3.2v0h-0.9H14.8L14.8,27.5z M19.1,26.2
		c-0.7,0-1.3,0.6-1.3,1.3c0,0.7,0.6,1.3,1.3,1.3c0.7,0,1.3-0.6,1.3-1.3C20.4,26.8,19.8,26.2,19.1,26.2L19.1,26.2z M19.1,24.9
		c-1.4,0-2.6,1.1-2.6,2.6c0,1.4,1.1,2.6,2.6,2.6c1.4,0,2.6-1.1,2.6-2.6C21.7,26,20.5,24.9,19.1,24.9L19.1,24.9z M34.9,26.2
		c-0.7,0-1.3,0.6-1.3,1.3c0,0.7,0.6,1.3,1.3,1.3c0.7,0,1.3-0.6,1.3-1.3C36.1,26.8,35.6,26.2,34.9,26.2L34.9,26.2z M34.9,24.9
		c-1.4,0-2.6,1.1-2.6,2.6c0,1.4,1.1,2.6,2.6,2.6c1.4,0,2.6-1.1,2.6-2.6C37.4,26,36.3,24.9,34.9,24.9L34.9,24.9z M18.9,21.1
		c-0.1,0.1-0.1,0.3,0,0.4c0.1,0.1,0.2,0.2,0.3,0.2h11.3c0.2,0,0.3-0.1,0.4-0.3c0-0.2,0-0.3-0.2-0.4c-0.1-0.1-0.2-0.1-0.3-0.2
		c-1.2-0.8-3.1-2.1-4.6-2.1c-1.8,0-1.3,0-3.1,0C20.9,18.7,19.7,19.7,18.9,21.1z"/>
	<path class="st17" d="M6.4,14.3c1.6-1.6,3.9-2.6,6.3-2.6c2.5,0,4.7,1,6.3,2.6c1.6,1.6,2.6,3.9,2.6,6.3c0,2.5-1,4.7-2.6,6.3
		c-1.6,1.6-3.9,2.6-6.3,2.6c-2.5,0-4.7-1-6.3-2.6c-1.6-1.6-2.6-3.9-2.6-6.3C3.8,18.1,4.8,15.9,6.4,14.3z"/>
	<g>
		<path class="st16" d="M16.9,16.4c-0.6-0.6-1.2-1-1.9-1.3c-0.7-0.3-1.5-0.5-2.3-0.5c-0.8,0-1.6,0.2-2.3,0.5
			c-0.7,0.3-1.4,0.7-1.9,1.3c-0.6,0.6-1,1.2-1.3,1.9c-0.3,0.7-0.5,1.5-0.5,2.3c0,0.8,0.2,1.6,0.5,2.3c0.3,0.7,0.7,1.4,1.3,1.9
			c0.6,0.6,1.2,1,1.9,1.3c0.7,0.3,1.5,0.5,2.3,0.5c0.8,0,1.6-0.2,2.3-0.5c0.7-0.3,1.4-0.7,1.9-1.3c0.6-0.6,1-1.2,1.3-1.9
			c0.3-0.7,0.5-1.5,0.5-2.3c0-0.8-0.2-1.6-0.5-2.3C17.9,17.6,17.5,16.9,16.9,16.4L16.9,16.4z M7.2,15.1c1.4-1.4,3.4-2.3,5.5-2.3
			c2.2,0,4.1,0.9,5.5,2.3c1.4,1.4,2.3,3.4,2.3,5.5c0,2.2-0.9,4.1-2.3,5.5c-1.4,1.4-3.4,2.3-5.5,2.3c-2.2,0-4.1-0.9-5.5-2.3
			c-1.4-1.4-2.3-3.4-2.3-5.5C4.9,18.4,5.8,16.5,7.2,15.1z"/>
		<path class="st16" d="M16.3,17c0.2,0.2,0.1,0.3,0,0.5l-3.7,3.9c-0.1,0.1-0.4,0-0.5-0.1C12,21,11.9,20.8,12,20.7l3.9-3.7
			C16,16.9,16.2,16.8,16.3,17z"/>
		<path class="st16" d="M11.9,12.6c0.7-0.1,1.4-0.1,2.1,0v-1.2h-2.1V12.6z"/>
		<rect x="10.5" y="10.7" class="st16" width="4.9" height="1.1"/>
		<path class="st16" d="M18,14.4c0.6,0.4,1.1,0.9,1.5,1.5l0.9-0.9l-1.5-1.5L18,14.4z"/>
		<path class="st16" d="M9.1,20.2c0.2,0,0.4,0.2,0.4,0.4c0,0.2-0.2,0.4-0.4,0.4H7.3c-0.2,0-0.4-0.2-0.4-0.4c0-0.2,0.2-0.4,0.4-0.4
			H9.1L9.1,20.2z M16.3,20.9c-0.2,0-0.4-0.2-0.4-0.4c0-0.2,0.2-0.4,0.4-0.4h1.8c0.2,0,0.4,0.2,0.4,0.4c0,0.2-0.2,0.4-0.4,0.4H16.3
			L16.3,20.9z M12.4,24.2c0-0.2,0.2-0.4,0.4-0.4c0.2,0,0.4,0.2,0.4,0.4V26c0,0.2-0.2,0.4-0.4,0.4c-0.2,0-0.4-0.2-0.4-0.4V24.2
			L12.4,24.2z M13.1,17c0,0.2-0.2,0.4-0.4,0.4c-0.2,0-0.4-0.2-0.4-0.4v-1.8c0-0.2,0.2-0.4,0.4-0.4c0.2,0,0.4,0.2,0.4,0.4V17z"/>
	</g>
</g>
</svg>
