<?xml version="1.0" encoding="utf-8"?>
<!-- Generator: Adobe Illustrator 22.0.1, SVG Export Plug-In . SVG Version: 6.00 Build 0)  -->
<svg version="1.1" id="Layer_1" xmlns="http://www.w3.org/2000/svg" xmlns:xlink="http://www.w3.org/1999/xlink" x="0px" y="0px"
	 viewBox="0 0 42.8 42.8" style="enable-background:new 0 0 42.8 42.8;" xml:space="preserve">
<style type="text/css">
	.st0{fill:#8CC541;stroke:#8CC541;stroke-miterlimit:10;}
	.st1{fill:#FFFFFF;}
	.st2{fill:#2B3990;stroke:#2B3990;stroke-miterlimit:10;}
	.st3{fill:#BE1E2D;stroke:#BE1E2D;stroke-miterlimit:10;}
	.st4{fill:#C2B59B;stroke:#C2B59B;stroke-miterlimit:10;}
	.st5{fill:#00A79D;stroke:#00A79D;stroke-miterlimit:10;}
	.st6{fill:#C38CAC;stroke:#C38CAC;stroke-miterlimit:10;}
	.st7{fill:#92278F;stroke:#92278F;stroke-miterlimit:10;}
	.st8{fill:#FBB040;stroke:#FBB040;stroke-miterlimit:10;}
	.st9{fill:#FFE600;stroke:#FFE600;stroke-miterlimit:10;}
	.st10{fill:#A97C50;stroke:#A97C50;stroke-miterlimit:10;}
	.st11{stroke:#000000;stroke-miterlimit:10;}
	.st12{fill:#39A4DD;stroke:#39A4DD;stroke-miterlimit:10;}
	.st13{fill:#EC2227;stroke:#EC2227;stroke-miterlimit:10;}
	.st14{fill:#90D7EF;stroke:#90D7EF;stroke-miterlimit:10;}
	.st15{fill:#989898;stroke:#989898;stroke-miterlimit:10;}
	.st16{fill-rule:evenodd;clip-rule:evenodd;fill:#FFFFFF;}
	.st17{fill-rule:evenodd;clip-rule:evenodd;fill:#989898;}
</style>
<g>
	<circle class="st6" cx="21.4" cy="21.4" r="20.9"/>
	<g>
		<path class="st1" d="M17.7,36c0,0-0.1,0-0.1,0c-0.3-0.1-0.5-0.3-0.5-0.6v-9.8H7.2c-0.3,0-0.6-0.2-0.6-0.5s0.1-0.6,0.4-0.7
			l19.6-9.1c0.2-0.1,0.5-0.1,0.7,0.1c0.2,0.2,0.2,0.5,0.1,0.7l-9.1,19.6C18.2,35.8,17.9,36,17.7,36L17.7,36z"/>
		<path class="st1" d="M26.6,6.8c-5.3,0-9.6,4.3-9.6,9.6c0,0.4,0,0.7,0.1,1L18,17c0-0.2,0-0.4,0-0.6c0-4.8,3.9-8.6,8.6-8.6
			s8.6,3.9,8.6,8.6S31.4,25,26.6,25c-0.4,0-0.9,0-1.3-0.1l-0.4,0.9c0.6,0.1,1.1,0.2,1.7,0.2c5.3,0,9.6-4.3,9.6-9.6
			S31.9,6.8,26.6,6.8z"/>
		<path class="st1" d="M26.6,10.9c-2.8,0-5,2-5.5,4.7l1.1-0.5c0.6-1.9,2.3-3.2,4.4-3.2c2.5,0,4.6,2.1,4.6,4.6c0,2.3-1.8,4.2-4,4.5
			l-0.5,1c3-0.1,5.4-2.5,5.4-5.5C32.1,13.3,29.7,10.9,26.6,10.9z"/>
	</g>
</g>
</svg>
