<?xml version="1.0" encoding="utf-8"?>
<!-- Generator: Adobe Illustrator 22.0.1, SVG Export Plug-In . SVG Version: 6.00 Build 0)  -->
<svg version="1.1" id="Layer_1" xmlns="http://www.w3.org/2000/svg" xmlns:xlink="http://www.w3.org/1999/xlink" x="0px" y="0px"
	 viewBox="0 0 42.8 42.8" style="enable-background:new 0 0 42.8 42.8;" xml:space="preserve">
<style type="text/css">
	.st0{fill:#8CC541;stroke:#8CC541;stroke-miterlimit:10;}
	.st1{fill:#FFFFFF;}
	.st2{fill:#2B3990;stroke:#2B3990;stroke-miterlimit:10;}
	.st3{fill:#BE1E2D;stroke:#BE1E2D;stroke-miterlimit:10;}
	.st4{fill:#C2B59B;stroke:#C2B59B;stroke-miterlimit:10;}
	.st5{fill:#00A79D;stroke:#00A79D;stroke-miterlimit:10;}
	.st6{fill:#C38CAC;stroke:#C38CAC;stroke-miterlimit:10;}
	.st7{fill:#92278F;stroke:#92278F;stroke-miterlimit:10;}
	.st8{fill:#FBB040;stroke:#FBB040;stroke-miterlimit:10;}
	.st9{fill:#FFE600;stroke:#FFE600;stroke-miterlimit:10;}
	.st10{fill:#A97C50;stroke:#A97C50;stroke-miterlimit:10;}
	.st11{stroke:#000000;stroke-miterlimit:10;}
	.st12{fill:#39A4DD;stroke:#39A4DD;stroke-miterlimit:10;}
	.st13{fill:#EC2227;stroke:#EC2227;stroke-miterlimit:10;}
	.st14{fill:#90D7EF;stroke:#90D7EF;stroke-miterlimit:10;}
	.st15{fill:#989898;stroke:#989898;stroke-miterlimit:10;}
	.st16{fill-rule:evenodd;clip-rule:evenodd;fill:#FFFFFF;}
	.st17{fill-rule:evenodd;clip-rule:evenodd;fill:#989898;}
</style>
<g>
	<circle class="st2" cx="21.4" cy="21.4" r="20.9"/>
	<g>
		<g>
			<path class="st1" d="M22.8,12.8c-1,0-1.9,0-2.8,0c0-0.5,0-0.9,0-1.4c0-0.4,0.3-0.6,0.7-0.6c0.5,0,0.9,0,1.4,0
				c0.4,0,0.7,0.3,0.7,0.7c0,0.3,0,0.6,0,0.9C22.8,12.5,22.8,12.6,22.8,12.8z"/>
			<path class="st1" d="M22.8,13.6H20c0,5.2,0,11.1,0,16.5c1,0,1.9,0,2.8,0C22.8,28.2,22.8,17.2,22.8,13.6z"/>
			<path class="st1" d="M19.9,10.4c-1.1-0.7-2.2-1.4-3.4-1.8c-0.8-0.3-1.2,0.1-1.2,0.9c0,0.3-0.1,0.5-0.2,0.8
				c-0.1,0.2-0.2,0.3-0.3,0.4c-0.4,0.7-0.3,1.2,0.4,1.7c0.2,0.1,0.3,0.2,0.5,0.2c1.1,0.3,2.3,0.1,3.5,0.2
				C19.3,11.9,19.1,11,19.9,10.4z M16.2,9.8C16.1,9.8,16,9.5,16,9.5c0.1-0.1,0.3-0.2,0.4-0.2c0.9,0.2,1.7,0.7,2.5,1.3
				C17.9,10.5,17,10.3,16.2,9.8z"/>
			<path class="st1" d="M27.8,10.5C27.8,10.5,27.8,10.4,27.8,10.5c-0.3-0.4-0.4-0.7-0.4-1.1c0-0.7-0.4-1-1-0.8
				c-1.3,0.4-2.4,1.1-3.5,1.9c0.9,0.6,0.6,1.5,0.6,2.3c0.1,0,0.1,0,0.2,0c0.8,0,1.6,0,2.4,0c0.3,0,0.6-0.1,0.9-0.2
				C28.2,12.2,28.4,11.5,27.8,10.5z M26.6,9.9c-0.8,0.5-1.7,0.6-2.6,0.6c0.7-0.6,1.5-1,2.4-1.2c0.1,0,0.3,0.1,0.5,0.2
				C26.7,9.6,26.7,9.8,26.6,9.9z"/>
		</g>
		<g>
			<g>
				<path class="st1" d="M32.8,22.7c0,0-1.7-4.6-2.4-6.7c-0.7-2-1.7-2.4-3-2.4c-0.7,0-2.5,0-4,0c0,0.7,0,1.4,0,2.2
					c1.7,0,3.1,0,3.5,0c1,0,1.6,0.3,2.2,1.8s1.8,4.9,1.8,4.9h-7.5c0,2.8,0,5.6,0,7.6h2.2l8.4-0.7c0,0,0-3.9,0-5.5
					S32.8,22.7,32.8,22.7z M30.3,27.3c-0.9,0-1.7-0.5-1.7-1.1c0-0.6,0.7-1.1,1.7-1.1c0.9,0,1.7,0.5,1.7,1.1
					C32,26.8,31.3,27.3,30.3,27.3z"/>
				<path class="st1" d="M19.3,22.6h-7.5c0,0,1.2-3.4,1.8-4.9s1.2-1.8,2.2-1.8c0.3,0,1.8,0,3.5,0c0-0.8,0-1.5,0-2.2
					c-1.5,0-3.3,0-4,0c-1.3,0-2.2,0.4-3,2.4c-0.7,2-2.4,6.7-2.4,6.7S8.7,22.4,8.7,24s0,5.5,0,5.5l8.4,0.7h2.2
					C19.3,27.7,19.3,25.1,19.3,22.6z M12.4,27.3c-0.9,0-1.7-0.5-1.7-1.1c0-0.6,0.7-1.1,1.7-1.1c0.9,0,1.7,0.5,1.7,1.1
					C14.1,26.8,13.3,27.3,12.4,27.3z"/>
			</g>
			<path class="st1" d="M9.6,30.2c0,0,0,4.1,0.7,4.1c0.2,0,0.4,0,0.7,0c0.4,0,0.8,0,1.2,0c0.2,0,0.4,0,0.7,0c0.7,0,0.7-3.7,0.7-3.7
				L9.6,30.2z"/>
			<path class="st1" d="M32.8,30.2c0,0,0,4.1-0.7,4.1c-0.2,0-0.4,0-0.7,0c-0.4,0-0.8,0-1.2,0c-0.2,0-0.4,0-0.7,0
				c-0.7,0-0.7-3.7-0.7-3.7L32.8,30.2z"/>
		</g>
	</g>
</g>
</svg>
