<?xml version="1.0" encoding="utf-8"?>
<!-- Generator: Adobe Illustrator 22.0.1, SVG Export Plug-In . SVG Version: 6.00 Build 0)  -->
<svg version="1.1" id="Layer_1" xmlns="http://www.w3.org/2000/svg" xmlns:xlink="http://www.w3.org/1999/xlink" x="0px" y="0px"
	 viewBox="0 0 42.8 42.8" style="enable-background:new 0 0 42.8 42.8;" xml:space="preserve">
<style type="text/css">
	.st0{fill:#8CC541;stroke:#8CC541;stroke-miterlimit:10;}
	.st1{fill:#FFFFFF;}
	.st2{fill:#2B3990;stroke:#2B3990;stroke-miterlimit:10;}
	.st3{fill:#BE1E2D;stroke:#BE1E2D;stroke-miterlimit:10;}
	.st4{fill:#C2B59B;stroke:#C2B59B;stroke-miterlimit:10;}
	.st5{fill:#00A79D;stroke:#00A79D;stroke-miterlimit:10;}
	.st6{fill:#C38CAC;stroke:#C38CAC;stroke-miterlimit:10;}
	.st7{fill:#92278F;stroke:#92278F;stroke-miterlimit:10;}
	.st8{fill:#FBB040;stroke:#FBB040;stroke-miterlimit:10;}
	.st9{fill:#FFE600;stroke:#FFE600;stroke-miterlimit:10;}
	.st10{fill:#A97C50;stroke:#A97C50;stroke-miterlimit:10;}
	.st11{stroke:#000000;stroke-miterlimit:10;}
	.st12{fill:#39A4DD;stroke:#39A4DD;stroke-miterlimit:10;}
	.st13{fill:#EC2227;stroke:#EC2227;stroke-miterlimit:10;}
	.st14{fill:#90D7EF;stroke:#90D7EF;stroke-miterlimit:10;}
	.st15{fill:#989898;stroke:#989898;stroke-miterlimit:10;}
	.st16{fill-rule:evenodd;clip-rule:evenodd;fill:#FFFFFF;}
	.st17{fill-rule:evenodd;clip-rule:evenodd;fill:#989898;}
</style>
<g>
	<ellipse transform="matrix(0.7071 -0.7071 0.7071 0.7071 -8.8565 21.3815)" class="st7" cx="21.4" cy="21.4" rx="20.9" ry="20.9"/>
	<g>
		<path class="st1" d="M27.4,18.2c0,0-0.9-2.5-1.3-3.5c-0.4-1.1-0.9-1.3-1.6-1.3c-0.5,0-2.2,0-3,0c0,0-0.2,0-0.4,0c-0.8,0-2.5,0-3,0
			c-0.7,0-1.2,0.2-1.6,1.3c-0.4,1.1-1.3,3.5-1.3,3.5s-0.6-0.2-0.6,0.6c0,0.8,0,2.9,0,2.9l4.4,0.4h4.6l4.4-0.4c0,0,0-2.1,0-2.9
			C28.1,18,27.4,18.2,27.4,18.2z M16.6,20.6c-0.5,0-0.9-0.3-0.9-0.6c0-0.3,0.4-0.6,0.9-0.6c0.5,0,0.9,0.3,0.9,0.6
			C17.5,20.4,17.1,20.6,16.6,20.6z M16.3,18.2c0,0,0.7-1.8,0.9-2.6s0.7-0.9,1.2-0.9c0.5,0,5.4,0,5.9,0c0.5,0,0.9,0.1,1.2,0.9
			s0.9,2.6,0.9,2.6H16.3z M26.1,20.6c-0.5,0-0.9-0.3-0.9-0.6c0-0.3,0.4-0.6,0.9-0.6c0.5,0,0.9,0.3,0.9,0.6
			C27,20.4,26.6,20.6,26.1,20.6z"/>
		<path class="st1" d="M15.2,22.2c0,0,0,2.2,0.4,2.2c0.1,0,0.2,0,0.3,0c0.2,0,0.4,0,0.6,0c0.1,0,0.2,0,0.3,0c0.4,0,0.4-2,0.4-2
			L15.2,22.2z"/>
		<path class="st1" d="M27.4,22.2c0,0,0,2.2-0.4,2.2c-0.1,0-0.2,0-0.3,0c-0.2,0-0.4,0-0.6,0c-0.1,0-0.2,0-0.3,0c-0.4,0-0.4-2-0.4-2
			L27.4,22.2z"/>
	</g>
	<path class="st1" d="M26.9,25.9h-4.5v1.5h-2v-1.5H16L4.8,34.1c3.8,5,9.8,8.2,16.5,8.2c6.8,0,12.8-3.2,16.6-8.2L26.9,25.9z M22.4,39
		h-2v-1.5h2V39z M22.4,34.2h-2v-3.4h2V34.2z"/>
</g>
</svg>
