<?xml version="1.0" encoding="utf-8"?>
<!-- Generator: Adobe Illustrator 22.0.1, SVG Export Plug-In . SVG Version: 6.00 Build 0)  -->
<svg version="1.1" id="Layer_1" xmlns="http://www.w3.org/2000/svg" xmlns:xlink="http://www.w3.org/1999/xlink" x="0px" y="0px"
	 viewBox="0 0 42.8 42.8" style="enable-background:new 0 0 42.8 42.8;" xml:space="preserve">
<style type="text/css">
	.st0{fill:#8CC541;stroke:#8CC541;stroke-miterlimit:10;}
	.st1{fill:#FFFFFF;}
	.st2{fill:#2B3990;stroke:#2B3990;stroke-miterlimit:10;}
	.st3{fill:#BE1E2D;stroke:#BE1E2D;stroke-miterlimit:10;}
	.st4{fill:#C2B59B;stroke:#C2B59B;stroke-miterlimit:10;}
	.st5{fill:#00A79D;stroke:#00A79D;stroke-miterlimit:10;}
	.st6{fill:#C38CAC;stroke:#C38CAC;stroke-miterlimit:10;}
	.st7{fill:#92278F;stroke:#92278F;stroke-miterlimit:10;}
	.st8{fill:#FBB040;stroke:#FBB040;stroke-miterlimit:10;}
	.st9{fill:#FFE600;stroke:#FFE600;stroke-miterlimit:10;}
	.st10{fill:#A97C50;stroke:#A97C50;stroke-miterlimit:10;}
	.st11{stroke:#000000;stroke-miterlimit:10;}
	.st12{fill:#39A4DD;stroke:#39A4DD;stroke-miterlimit:10;}
	.st13{fill:#EC2227;stroke:#EC2227;stroke-miterlimit:10;}
	.st14{fill:#90D7EF;stroke:#90D7EF;stroke-miterlimit:10;}
	.st15{fill:#989898;stroke:#989898;stroke-miterlimit:10;}
	.st16{fill-rule:evenodd;clip-rule:evenodd;fill:#FFFFFF;}
	.st17{fill-rule:evenodd;clip-rule:evenodd;fill:#989898;}
</style>
<g>
	<circle class="st5" cx="21.4" cy="21.4" r="20.9"/>
	<path class="st1" d="M23.4,11.6l-7.5-3c-0.5-0.2-1.1,0-1.3,0.6l-3,7.5c-0.2,0.5-0.2,1.4,0,1.9l6.5,15c0.2,0.5,0.8,0.7,1.3,0.5
		l11.2-4.8c0.5-0.2,0.7-0.8,0.5-1.3l-6.5-15C24.5,12.4,23.9,11.8,23.4,11.6z M15.6,13.3c0.4-1,1.6-1.5,2.6-1.1
		c1,0.4,1.5,1.6,1.1,2.6s-1.6,1.5-2.6,1.1C15.7,15.5,15.2,14.4,15.6,13.3z M23.5,26.7l0.5,1.1l-1,0.4l-0.4-1c-0.7,0.3-1.5,0.4-2,0.3
		l-0.2-1.4c0.5,0.1,1.3,0,2-0.3c0.6-0.3,0.9-0.7,0.7-1.1c-0.2-0.4-0.6-0.5-1.5-0.4c-1.3,0.1-2.3-0.1-2.7-1.1c-0.4-0.9-0.1-1.9,1-2.6
		l-0.4-1l1-0.4l0.4,0.9c0.7-0.3,1.3-0.3,1.7-0.3l0.2,1.3c-0.3,0-0.9,0-1.7,0.3c-0.7,0.3-0.8,0.7-0.7,1c0.1,0.3,0.6,0.4,1.7,0.4
		c1.4-0.1,2.2,0.3,2.6,1.2C24.9,24.9,24.6,26,23.5,26.7z"/>
</g>
</svg>
