<?xml version="1.0" encoding="utf-8"?>
<!-- Generator: Adobe Illustrator 22.0.1, SVG Export Plug-In . SVG Version: 6.00 Build 0)  -->
<svg version="1.1" id="Layer_1" xmlns="http://www.w3.org/2000/svg" xmlns:xlink="http://www.w3.org/1999/xlink" x="0px" y="0px"
	 viewBox="0 0 42.8 42.8" style="enable-background:new 0 0 42.8 42.8;" xml:space="preserve">
<style type="text/css">
	.st0{fill:#8CC541;stroke:#8CC541;stroke-miterlimit:10;}
	.st1{fill:#FFFFFF;}
	.st2{fill:#2B3990;stroke:#2B3990;stroke-miterlimit:10;}
	.st3{fill:#BE1E2D;stroke:#BE1E2D;stroke-miterlimit:10;}
	.st4{fill:#C2B59B;stroke:#C2B59B;stroke-miterlimit:10;}
	.st5{fill:#00A79D;stroke:#00A79D;stroke-miterlimit:10;}
	.st6{fill:#C38CAC;stroke:#C38CAC;stroke-miterlimit:10;}
	.st7{fill:#92278F;stroke:#92278F;stroke-miterlimit:10;}
	.st8{fill:#FBB040;stroke:#FBB040;stroke-miterlimit:10;}
	.st9{fill:#FFE600;stroke:#FFE600;stroke-miterlimit:10;}
	.st10{fill:#A97C50;stroke:#A97C50;stroke-miterlimit:10;}
	.st11{stroke:#000000;stroke-miterlimit:10;}
	.st12{fill:#39A4DD;stroke:#39A4DD;stroke-miterlimit:10;}
	.st13{fill:#EC2227;stroke:#EC2227;stroke-miterlimit:10;}
	.st14{fill:#90D7EF;stroke:#90D7EF;stroke-miterlimit:10;}
	.st15{fill:#989898;stroke:#989898;stroke-miterlimit:10;}
	.st16{fill-rule:evenodd;clip-rule:evenodd;fill:#FFFFFF;}
	.st17{fill-rule:evenodd;clip-rule:evenodd;fill:#989898;}
</style>
<g>
	<circle class="st10" cx="21.4" cy="21.4" r="20.9"/>
	<path class="st1" d="M10.4,26.6c0,0,0,4.1,0.7,4.1c0.2,0,0.4,0,0.7,0c0.4,0,0.8,0,1.2,0c0.2,0,0.4,0,0.7,0c0.7,0,0.7-3.7,0.7-3.7
		L10.4,26.6z"/>
	<path class="st1" d="M33.1,30.2c0.4-1.1,0.4-3.6,0.4-3.6L29.9,27C31,28.1,32.1,29.1,33.1,30.2z"/>
	<g>
		<path class="st1" d="M15.5,12.5c0.3-0.2,0.7-0.2,1.1-0.2c1,0,10.2,0,11.2,0s1.6,0.3,2.2,1.8c0.5,1.5,1.8,4.9,1.8,4.9H22
			c2.5,2.5,4.9,4.9,7.3,7.3l5.5-0.5c0,0,0-3.9,0-5.5c0-1.6-1.2-1.2-1.2-1.2s-1.7-4.6-2.4-6.7c-0.7-2-1.7-2.4-3-2.4c-1,0-4.1,0-5.7,0
			c0,0-0.3,0-0.8,0c-1.5,0-4.7,0-5.7,0c-0.9,0-1.6,0.2-2.1,0.9C14.4,11.5,14.9,12,15.5,12.5z M32.7,22.6c0,0.6-0.7,1.1-1.7,1.1
			c-0.9,0-1.7-0.5-1.7-1.1c0-0.6,0.7-1.1,1.7-1.1C32,21.5,32.7,22,32.7,22.6z"/>
		<path class="st1" d="M16,19h-3.4c0,0,0.4-1.2,0.9-2.5c-0.5-0.5-0.9-0.9-1.4-1.4c-0.7,2-1.5,4-1.5,4s-1.2-0.4-1.2,1.2
			c0,1.6,0,5.5,0,5.5l8.4,0.7h5.8C21,24.1,18.5,21.6,16,19z M13.2,23.7c-0.9,0-1.7-0.5-1.7-1.1c0-0.6,0.7-1.1,1.7-1.1
			s1.7,0.5,1.7,1.1C14.8,23.2,14.1,23.7,13.2,23.7z"/>
	</g>
	<path class="st1" d="M7.6,5.7c-0.7,0.6-1.4,1.3-2,2c9.5,9.5,19.7,19.7,29.4,29.4c0.7-0.6,1.4-1.3,2-2C29.3,27.3,16.4,14.4,7.6,5.7z
		"/>
</g>
</svg>
