<?xml version="1.0" encoding="utf-8"?>
<!-- Generator: Adobe Illustrator 22.0.1, SVG Export Plug-In . SVG Version: 6.00 Build 0)  -->
<svg version="1.1" id="Layer_1" xmlns="http://www.w3.org/2000/svg" xmlns:xlink="http://www.w3.org/1999/xlink" x="0px" y="0px"
	 viewBox="0 0 42.8 42.8" style="enable-background:new 0 0 42.8 42.8;" xml:space="preserve">
<style type="text/css">
	.st0{fill:#8CC541;stroke:#8CC541;stroke-miterlimit:10;}
	.st1{fill:#FFFFFF;}
	.st2{fill:#2B3990;stroke:#2B3990;stroke-miterlimit:10;}
	.st3{fill:#BE1E2D;stroke:#BE1E2D;stroke-miterlimit:10;}
	.st4{fill:#C2B59B;stroke:#C2B59B;stroke-miterlimit:10;}
	.st5{fill:#00A79D;stroke:#00A79D;stroke-miterlimit:10;}
	.st6{fill:#C38CAC;stroke:#C38CAC;stroke-miterlimit:10;}
	.st7{fill:#92278F;stroke:#92278F;stroke-miterlimit:10;}
	.st8{fill:#FBB040;stroke:#FBB040;stroke-miterlimit:10;}
	.st9{fill:#FFE600;stroke:#FFE600;stroke-miterlimit:10;}
	.st10{fill:#A97C50;stroke:#A97C50;stroke-miterlimit:10;}
	.st11{stroke:#000000;stroke-miterlimit:10;}
	.st12{fill:#39A4DD;stroke:#39A4DD;stroke-miterlimit:10;}
	.st13{fill:#EC2227;stroke:#EC2227;stroke-miterlimit:10;}
	.st14{fill:#90D7EF;stroke:#90D7EF;stroke-miterlimit:10;}
	.st15{fill:#989898;stroke:#989898;stroke-miterlimit:10;}
	.st16{fill-rule:evenodd;clip-rule:evenodd;fill:#FFFFFF;}
	.st17{fill-rule:evenodd;clip-rule:evenodd;fill:#989898;}
</style>
<g>
	<circle class="st11" cx="21.4" cy="21.4" r="20.9"/>
	<path class="st1" d="M34.5,31.8c-0.7-0.7-1.6-0.9-2.6-0.9c-1.1,0-1.1,0-1.1-1.1c0-0.8,0-1.5,0-2.3c0-0.9-0.5-1.3-1.4-1
		c-0.3,0.1-0.6,0.2-1,0.3c1.4-3.2,1.7-6.5,1.4-9.9c0.6,0,1.2,0,1.7,0c0.8,0,1.3-0.6,1.3-1.3c0-0.7-0.6-1.2-1.4-1.3
		c-0.4,0-0.9-0.1-1.3,0c-0.7,0.1-0.9-0.2-1.1-0.8c-0.4-1.5-0.8-3-1.3-4.4c-0.9-2.5-3.3-3.1-5.4-1.5c-0.3,0.3-0.7,0.6-1,0.9
		c-0.3-0.3-0.6-0.5-0.8-0.8c-1-0.8-2.2-1.4-3.5-0.9c-1.2,0.5-1.9,1.5-2.3,2.7c-0.4,1.4-0.8,2.7-1.1,4.1c-0.1,0.4-0.3,0.6-0.8,0.6
		c-0.5,0-1,0-1.5,0c-0.9,0-1.5,0.5-1.5,1.2c0,0.8,0.5,1.3,1.5,1.3c0.5,0,1,0,1.5,0c-0.3,3.4,0.1,6.6,1.4,9.9
		c-0.4-0.1-0.6-0.1-0.8-0.2c-1.1-0.3-1.6,0.1-1.6,1.1c0,0.7,0,1.3,0,2c0,1.5,0.2,1.2-1.3,1.3c-2,0-3.2,1.3-3.2,3.2
		c0,0.9,0,1.8,0,2.7c3.7,3.3,8.6,5.4,14,5.4c5.4,0,10.3-2,14-5.4c0-1,0-2,0-3C35.3,33,35,32.4,34.5,31.8z M25.8,27.5
		c-0.1,0.1-0.2,0.2-0.3,0.2c-2.1,0.8-4.1,1.4-6.5,0.7c-1.9-0.6-2.9-1.7-3.5-3.4c-0.1-0.3-0.2-0.6-0.3-1c4.2,0,8.2,0,12.3,0
		C27.2,25.3,26.7,26.5,25.8,27.5z M19.1,20c0.8,0,1.2,0.5,1.2,1.2c0,0.8-0.4,1.4-1.2,1.4c-0.7,0-1.5,0-2.2,0c-0.7,0-1.2-0.6-1.2-1.4
		c0-0.8,0.5-1.2,1.3-1.3c0.4,0,0.7,0,1.1,0c0,0,0,0,0,0C18.5,20,18.8,20,19.1,20z M22.4,21.3c0-0.8,0.5-1.3,1.3-1.3
		c0.4,0,0.7,0,1.1,0c0.3,0,0.7,0,1,0c0.8,0,1.2,0.5,1.3,1.3c0,0.8-0.5,1.3-1.2,1.4c-0.7,0-1.4,0-2.1,0C22.9,22.6,22.4,22,22.4,21.3z
		 M27.3,18.7c-2,0-3.9,0-5.9,0c0,0,0,0,0,0c-2,0-4,0-6,0c-0.5,0-0.8,0-0.8-0.7c0.1-1,0.1-1.1,0.8-1.1c3.9,0,7.9,0,11.8,0
		c0.7,0,0.8,0.2,0.8,1.2C28.2,18.8,27.7,18.7,27.3,18.7z"/>
</g>
</svg>
