<?xml version="1.0" encoding="utf-8"?>
<!-- Generator: Adobe Illustrator 22.0.1, SVG Export Plug-In . SVG Version: 6.00 Build 0)  -->
<svg version="1.1" id="Layer_1" xmlns="http://www.w3.org/2000/svg" xmlns:xlink="http://www.w3.org/1999/xlink" x="0px" y="0px"
	 viewBox="0 0 42.8 42.8" style="enable-background:new 0 0 42.8 42.8;" xml:space="preserve">
<style type="text/css">
	.st0{fill:#8CC541;stroke:#8CC541;stroke-miterlimit:10;}
	.st1{fill:#FFFFFF;}
	.st2{fill:#2B3990;stroke:#2B3990;stroke-miterlimit:10;}
	.st3{fill:#BE1E2D;stroke:#BE1E2D;stroke-miterlimit:10;}
	.st4{fill:#C2B59B;stroke:#C2B59B;stroke-miterlimit:10;}
	.st5{fill:#00A79D;stroke:#00A79D;stroke-miterlimit:10;}
	.st6{fill:#C38CAC;stroke:#C38CAC;stroke-miterlimit:10;}
	.st7{fill:#92278F;stroke:#92278F;stroke-miterlimit:10;}
	.st8{fill:#FBB040;stroke:#FBB040;stroke-miterlimit:10;}
	.st9{fill:#FFE600;stroke:#FFE600;stroke-miterlimit:10;}
	.st10{fill:#A97C50;stroke:#A97C50;stroke-miterlimit:10;}
	.st11{stroke:#000000;stroke-miterlimit:10;}
	.st12{fill:#39A4DD;stroke:#39A4DD;stroke-miterlimit:10;}
	.st13{fill:#EC2227;stroke:#EC2227;stroke-miterlimit:10;}
	.st14{fill:#90D7EF;stroke:#90D7EF;stroke-miterlimit:10;}
	.st15{fill:#989898;stroke:#989898;stroke-miterlimit:10;}
	.st16{fill-rule:evenodd;clip-rule:evenodd;fill:#FFFFFF;}
	.st17{fill-rule:evenodd;clip-rule:evenodd;fill:#989898;}
</style>
<g>
	<circle class="st9" cx="21.4" cy="21.4" r="20.9"/>
	<g>
		<path class="st1" d="M27.4,18.1c-0.8-0.2-1.6-0.5-2.4-0.7c-0.3,0.7-0.6,1.4-0.9,2c-1.2,2-3,3.1-5.4,2.7c-2-0.3-3.4-1.4-4.1-3.4
			c-0.4-1.2-0.3-2.5,0.1-3.7c0.2-0.5,0.1-0.8-0.4-1c-1.2-0.6-1.2-1.1,0-1.9c0.3-0.2,0.4-0.5,0.5-0.8c1.5-3.4,5.2-4.9,8.3-3.4
			c2.8,1.3,3.7,4.3,3.3,7c-0.2,1-0.1,1.7,0.9,2.1C27.7,17.2,27.9,17.6,27.4,18.1z M25,16.3c0.1-1.3,0.2-2.4,0.2-3.5
			c-0.2-2.7-2.2-4.5-4.9-4.4c-3,0.2-4.4,1.7-5.2,4.7C18.3,14.2,21.5,15.2,25,16.3z"/>
		<path class="st1" d="M24.3,31.5c-0.5-0.6-0.4-1.1,0-1.7c0.9-1.4,1.8-2.7,2.7-4.1c0.4-0.6,0.9-0.8,1.6-0.5c2.5,1.2,5.1,2.3,7.6,3.5
			c0.1,0,0.2,0.1,0.3,0.2c-1.1,1.9-2.3,3.8-3.4,5.7c-0.7-0.4-0.7-0.8-0.3-1.4c0.7-1,1.3-2.2,1.9-3.2c0.3-0.5,0.3-0.8-0.3-1
			c-2-0.9-4-1.7-6-2.7c-0.5-0.3-0.8-0.1-1,0.4C26.4,28.3,25.4,29.8,24.3,31.5z"/>
		<path class="st1" d="M14.1,32.3c-0.3-0.7-0.2-1,0.5-1.2c0.2-0.1,0.4-0.1,0.7-0.2c0.2,0.3,0.3,0.5,0.4,0.8c0.8,1.7,1.6,3.4,2.5,5.1
			c0.8,1.4,1.9,2.5,3.8,2.4c2.7-0.2,5.3-0.2,8-0.2c1.1,0,1.9-0.6,2.1-1.6c0.2-0.8-0.3-1.7-1.2-2.2c-0.2-0.1-0.4-0.4-0.5-0.6
			c-0.3-0.8-0.5-1.6-0.9-2.4c-0.1-0.3-0.7-0.4-1-0.6c-0.1,0.4-0.4,0.8-0.4,1.1c0.1,0.6,0.4,1.2,0.6,1.9c-1.4-0.1-2.6-0.2-3.9-0.2
			c-1.1,0-1.7-0.6-2.1-1.5c-0.9-2-1.7-4-2.6-6c-0.7-1.6-1.9-2.7-3.5-3.4c-3.6-1.4-7.3,0.8-7.7,4.1c-0.3,2.6-0.8,5.2-1.2,7.8
			c0,0.2-0.1,0.7-0.3,1.4c3,2.6,6.6,4.4,10.7,5C16.6,38.1,14.7,33.5,14.1,32.3z"/>
	</g>
</g>
</svg>
